<mxfile host="app.diagrams.net" modified="2021-01-07T05:56:09.049Z" agent="5.0 (Windows NT 10.0; Win64; x64) AppleWebKit/537.36 (KHTML, like Gecko) Chrome/78.0.3904.70 Safari/537.36" etag="gkiQBXf-Y39QXv4g7QmX" version="14.1.8" type="github">
  <diagram id="n42saWeMV8a7mL2TH7Mh" name="第 1 页">
    <mxGraphModel dx="1422" dy="794" grid="1" gridSize="10" guides="1" tooltips="1" connect="1" arrows="1" fold="1" page="1" pageScale="1" pageWidth="827" pageHeight="1169" math="0" shadow="0">
      <root>
        <mxCell id="0" />
        <mxCell id="1" parent="0" />
        <mxCell id="4RYWUwDIcnNMAho6Nq_H-1" value="" style="rounded=0;whiteSpace=wrap;html=1;" parent="1" vertex="1">
          <mxGeometry x="60" y="50" width="710" height="490" as="geometry" />
        </mxCell>
        <mxCell id="4RYWUwDIcnNMAho6Nq_H-4" value="" style="shape=offPageConnector;whiteSpace=wrap;html=1;rotation=90;" parent="1" vertex="1">
          <mxGeometry x="85" y="75" width="80" height="70" as="geometry" />
        </mxCell>
        <mxCell id="4RYWUwDIcnNMAho6Nq_H-5" value="" style="rounded=0;whiteSpace=wrap;html=1;dashed=1;" parent="1" vertex="1">
          <mxGeometry x="170" y="70" width="580" height="80" as="geometry" />
        </mxCell>
        <mxCell id="4RYWUwDIcnNMAho6Nq_H-6" value="" style="rounded=1;whiteSpace=wrap;html=1;" parent="1" vertex="1">
          <mxGeometry x="190" y="87.5" width="100" height="45" as="geometry" />
        </mxCell>
        <mxCell id="4RYWUwDIcnNMAho6Nq_H-7" value="" style="rounded=1;whiteSpace=wrap;html=1;" parent="1" vertex="1">
          <mxGeometry x="330" y="87.5" width="100" height="45" as="geometry" />
        </mxCell>
        <mxCell id="4RYWUwDIcnNMAho6Nq_H-9" value="" style="rounded=1;whiteSpace=wrap;html=1;" parent="1" vertex="1">
          <mxGeometry x="480" y="87.5" width="100" height="45" as="geometry" />
        </mxCell>
        <mxCell id="4RYWUwDIcnNMAho6Nq_H-11" value="" style="rounded=1;whiteSpace=wrap;html=1;" parent="1" vertex="1">
          <mxGeometry x="626" y="87.5" width="100" height="45" as="geometry" />
        </mxCell>
      </root>
    </mxGraphModel>
  </diagram>
</mxfile>
